<svg xmlns="http://www.w3.org/2000/svg" width="256" viewBox="0 0 192 192" height="256" version="1.0"><defs><clipPath id="a"><path d="M7.676 32h177v122h-177zm0 0"/></clipPath><clipPath id="b"><path d="M58 172h77v12.676H58zm0 0"/></clipPath><clipPath id="c"><path d="M32 7.676h128V27H32zm0 0"/></clipPath></defs><path fill="#074f77" d="M115.14 172.035H77.21l4.208-25.285h29.52zm0 0"/><path fill="#00325a" d="M112.516 156.23H79.867l1.551-9.48h29.52zm0 0"/><path fill="#00325a" d="M111.98 153.07H80.375l1.043-6.32h29.52zm0 0"/><g clip-path="url(#a)"><path fill="#01a0c8" d="M14 32.96h164.355a6.28 6.28 0 012.418.484c.383.158.75.353 1.094.583a6.2 6.2 0 011.742 1.746c.235.344.426.707.586 1.09a6.394 6.394 0 01.48 2.422V146.75a6.306 6.306 0 01-2.809 5.254c-.343.23-.71.426-1.093.586a6.568 6.568 0 01-1.183.36c-.41.077-.82.12-1.235.12H14c-.418 0-.828-.043-1.234-.12a6.608 6.608 0 01-1.188-.36 6.358 6.358 0 01-2.836-2.328 6.546 6.546 0 01-.586-1.094 6.608 6.608 0 01-.36-1.188 6.505 6.505 0 01-.12-1.23V39.285c0-.418.043-.828.12-1.234.083-.406.204-.801.36-1.188a6.36 6.36 0 01.586-1.09 6.2 6.2 0 011.742-1.746c.348-.23.711-.425 1.094-.582.383-.16.781-.28 1.188-.363A6.514 6.514 0 0114 32.961zm0 0"/></g><path fill="#fab400" d="M17.16 39.285h158.035c.418 0 .82.078 1.207.238.391.16.73.391 1.028.688.297.297.523.637.683 1.023.16.387.242.79.242 1.211v88.5c0 .418-.082.82-.242 1.207-.16.391-.386.73-.683 1.028a3.093 3.093 0 01-1.028.683c-.386.16-.789.242-1.207.242H17.16c-.422 0-.824-.082-1.21-.242a3.077 3.077 0 01-1.024-.683 3.104 3.104 0 01-.688-1.028 3.123 3.123 0 01-.238-1.207v-88.5a3.128 3.128 0 01.926-2.234 3.128 3.128 0 012.234-.926zm0 0"/><path fill="#dc9600" d="M178.355 42.445v3.16c0-.417-.082-.824-.242-1.21a3.117 3.117 0 00-.683-1.024 3.104 3.104 0 00-1.028-.687 3.123 3.123 0 00-1.207-.239H17.16a3.128 3.128 0 00-2.234.926A3.128 3.128 0 0014 45.605v-3.16a3.128 3.128 0 01.926-2.234 3.128 3.128 0 012.234-.926h158.035c.418 0 .82.078 1.207.238.391.16.73.391 1.028.688.297.297.523.637.683 1.023.16.387.242.79.242 1.211zm0 0"/><path fill="#dc9600" d="M159.39 39.285v79.016c0 .422-.077.824-.242 1.21-.16.387-.386.727-.683 1.024a3.128 3.128 0 01-2.235.926H36.125a3.128 3.128 0 01-2.238-.926 3.117 3.117 0 01-.684-1.023 3.131 3.131 0 01-.242-1.211V39.285zm0 0"/><g clip-path="url(#b)"><path fill="#01a0c8" d="M130.945 184.676H61.41a3.128 3.128 0 01-2.234-.926 3.128 3.128 0 01-.926-2.234v-3.16a6.238 6.238 0 01.48-2.418c.157-.387.352-.75.583-1.094a6.358 6.358 0 011.746-1.746c.343-.23.707-.426 1.093-.582a6.238 6.238 0 012.418-.48h63.215a6.2 6.2 0 011.23.12c.41.078.805.2 1.188.36a6.253 6.253 0 012.836 2.328 6.253 6.253 0 01.945 2.277c.082.406.121.82.121 1.234v3.16c0 .419-.082.825-.242 1.212-.16.386-.386.726-.683 1.023a3.104 3.104 0 01-1.028.688c-.386.16-.789.238-1.207.238zm0 0"/></g><path fill="#f0f0f0" d="M159.39 26.64v88.5c0 .419-.077.825-.242 1.212-.16.386-.386.726-.683 1.023a3.128 3.128 0 01-2.235.926H36.125a3.128 3.128 0 01-2.238-.926 3.117 3.117 0 01-.684-1.023 3.146 3.146 0 01-.242-1.211v-88.5zm0 0"/><path fill="#c80a50" d="M136.078 86.695a3.106 3.106 0 01-1.7-.496 3.097 3.097 0 01-1.167-1.336 3.099 3.099 0 01-.266-1.75 3.08 3.08 0 01.72-1.617l8.944-10.605-8.945-10.606a3.102 3.102 0 01-.73-2.305 3.13 3.13 0 01.34-1.183 3.122 3.122 0 011.852-1.559 3.093 3.093 0 011.222-.136c.418.035.812.148 1.187.34.371.19.692.449.965.769l10.668 12.64c.238.286.422.606.55.954.13.351.192.715.192 1.086a3.182 3.182 0 01-.742 2.04L138.5 85.573a3.168 3.168 0 01-2.422 1.121zm0 0M100.527 86.695c-.468 0-.914-.097-1.336-.293a3.134 3.134 0 01-1.086-.828L87.437 72.93a3.112 3.112 0 01-.554-.953 3.21 3.21 0 01-.192-1.086 3.158 3.158 0 01.746-2.04l10.668-12.64c.27-.32.59-.578.965-.77a3.13 3.13 0 011.184-.34c.418-.035.824.008 1.226.137.399.125.758.325 1.079.594.32.27.578.594.77.965.19.371.308.766.343 1.183a3.177 3.177 0 01-.73 2.305l-8.95 10.606 8.95 10.605c.394.469.636 1.008.714 1.617a3.066 3.066 0 01-.265 1.75 3.114 3.114 0 01-1.164 1.336 3.125 3.125 0 01-1.7.496zm0 0M115.14 86.695a2.87 2.87 0 01-.605-.062 3.075 3.075 0 01-1.14-.465 3.097 3.097 0 01-.875-.871 3.106 3.106 0 01-.477-1.137 3.055 3.055 0 01-.004-1.234l4.934-25.285c.082-.41.238-.79.472-1.141a3.174 3.174 0 012.004-1.348c.41-.082.82-.082 1.235 0a3.13 3.13 0 012.011 1.332c.235.348.395.727.477 1.137.086.41.086.824.008 1.234l-4.942 25.286a3.157 3.157 0 01-2.031 2.367c-.344.125-.7.187-1.066.187zm0 0"/><path fill="#d2d2d2" d="M32.96 26.64h44.25v91.66H36.126a3.128 3.128 0 01-2.238-.925 3.117 3.117 0 01-.684-1.023 3.146 3.146 0 01-.242-1.211zm0 0"/><g clip-path="url(#c)"><path fill="#0a5078" d="M159.39 10.836V26.64H32.96V10.836c0-.418.083-.82.243-1.207a3.133 3.133 0 011.711-1.711c.387-.16.79-.242 1.211-.242H156.23a3.16 3.16 0 012.918 1.953c.165.387.243.789.243 1.207zm0 0"/></g><path fill="#00325a" d="M153.07 20.32c0 .418-.082.82-.242 1.207a3.133 3.133 0 01-1.71 1.71 3.127 3.127 0 01-2.419.001 3.133 3.133 0 01-1.71-1.71 3.123 3.123 0 01-.239-1.208 3.128 3.128 0 01.922-2.234 3.144 3.144 0 012.238-.926 3.144 3.144 0 012.234.926c.297.297.524.637.684 1.023.16.387.242.79.242 1.211zm0 0M140.426 20.32c0 .418-.078.82-.238 1.207-.16.391-.391.73-.688 1.028a3.117 3.117 0 01-1.023.683 3.146 3.146 0 01-2.422 0 3.117 3.117 0 01-1.024-.683 3.093 3.093 0 01-.683-1.028 3.056 3.056 0 01-.243-1.207c0-.422.079-.824.243-1.21.16-.387.386-.727.683-1.024a3.128 3.128 0 012.235-.926 3.142 3.142 0 012.234.926 3.128 3.128 0 01.926 2.234zm0 0M127.785 20.32c0 .418-.082.82-.242 1.207a3.133 3.133 0 01-1.71 1.71 3.127 3.127 0 01-2.419.001 3.133 3.133 0 01-1.71-1.71 3.127 3.127 0 010-2.419c.16-.386.386-.726.683-1.023a3.144 3.144 0 012.238-.926 3.144 3.144 0 012.234.926c.297.297.524.637.684 1.023.16.387.242.79.242 1.211zm0 0M42.445 17.16h44.25c.418 0 .82.078 1.207.238.391.16.73.391 1.028.688.297.297.523.637.683 1.023a3.131 3.131 0 010 2.418c-.16.391-.386.73-.683 1.028a3.093 3.093 0 01-1.028.683c-.386.16-.789.242-1.207.242h-44.25c-.422 0-.824-.082-1.21-.242a3.117 3.117 0 01-1.024-.683 3.104 3.104 0 01-.688-1.028 3.123 3.123 0 01-.238-1.207 3.128 3.128 0 01.926-2.234 3.128 3.128 0 012.234-.926zm0 0"/><path fill="#c80a50" d="M153.07 17.16c0 .418-.082.82-.242 1.207a3.133 3.133 0 01-1.71 1.711 3.127 3.127 0 01-2.419 0 3.133 3.133 0 01-1.71-1.71 3.123 3.123 0 01-.239-1.208 3.128 3.128 0 01.922-2.234A3.144 3.144 0 01149.91 14a3.144 3.144 0 012.234.926c.297.293.524.636.684 1.023.16.387.242.79.242 1.211zm0 0"/><path fill="#01a0c8" d="M140.426 17.16a3.144 3.144 0 01-.926 2.234 3.117 3.117 0 01-1.023.684 3.146 3.146 0 01-2.422 0 3.133 3.133 0 01-1.707-1.71 3.056 3.056 0 01-.243-1.208c0-.422.079-.824.243-1.21.16-.387.386-.731.683-1.024a3.128 3.128 0 012.235-.926 3.128 3.128 0 012.234.926 3.128 3.128 0 01.926 2.234zm0 0"/><path fill="#fab400" d="M127.785 17.16c0 .418-.082.82-.242 1.207a3.133 3.133 0 01-1.711 1.711 3.127 3.127 0 01-2.418 0 3.133 3.133 0 01-1.71-1.71 3.127 3.127 0 010-2.419c.16-.386.386-.73.683-1.023a3.144 3.144 0 012.238-.926 3.144 3.144 0 012.234.926c.297.293.524.636.684 1.023.16.387.242.79.242 1.211zm0 0"/><path fill="#f0f0f0" d="M86.695 20.32h-44.25c-.422 0-.824-.082-1.21-.242a3.117 3.117 0 01-1.024-.683 3.144 3.144 0 01-.926-2.235 3.128 3.128 0 01.926-2.234A3.128 3.128 0 0142.445 14h44.25c.418 0 .82.078 1.207.238.391.16.73.39 1.028.688.297.293.523.636.683 1.023a3.131 3.131 0 010 2.418 3.133 3.133 0 01-1.71 1.711c-.387.16-.79.242-1.208.242zm0 0"/><path fill="#0082aa" d="M162.55 143.586h12.645c.418 0 .82.082 1.207.242a3.133 3.133 0 011.71 1.71 3.131 3.131 0 01.001 2.419 3.133 3.133 0 01-1.71 1.711c-.387.16-.79.242-1.208.242h-12.644c-.418 0-.82-.082-1.207-.242a3.133 3.133 0 01-1.71-1.71 3.127 3.127 0 01-.001-2.419 3.133 3.133 0 011.71-1.71c.387-.161.79-.243 1.208-.243zm0 0M153.07 146.75c0 .418-.082.82-.242 1.207a3.133 3.133 0 01-1.71 1.711 3.127 3.127 0 01-2.419 0 3.133 3.133 0 01-1.71-1.711 3.123 3.123 0 01-.239-1.207c0-.422.078-.824.238-1.21a3.133 3.133 0 011.71-1.71 3.131 3.131 0 012.42-.002 3.133 3.133 0 011.71 1.711c.16.387.242.79.242 1.211zm0 0"/><path fill="#f0f0f0" d="M162.55 140.426h12.645c.418 0 .82.082 1.207.242a3.133 3.133 0 011.71 1.71 3.127 3.127 0 01.001 2.419 3.133 3.133 0 01-1.71 1.71c-.387.161-.79.243-1.208.243h-12.644c-.418 0-.82-.082-1.207-.242a3.133 3.133 0 01-1.71-1.71 3.131 3.131 0 01-.001-2.42 3.133 3.133 0 011.71-1.71c.387-.16.79-.242 1.208-.242zm0 0M153.07 143.586c0 .422-.082.824-.242 1.21a3.133 3.133 0 01-1.71 1.712 3.127 3.127 0 01-2.419 0c-.387-.16-.73-.39-1.027-.684a3.196 3.196 0 01-.684-1.027 3.128 3.128 0 01-.238-1.211c0-.418.078-.82.238-1.207a3.133 3.133 0 011.71-1.71 3.131 3.131 0 012.42-.001 3.133 3.133 0 011.71 1.71c.16.388.242.79.242 1.208zm0 0"/><path fill="#0a5078" d="M42.445 36.125H67.73a3.128 3.128 0 012.234.926c.298.293.524.636.684 1.023.165.387.243.79.243 1.211 0 .418-.079.82-.243 1.207a3.133 3.133 0 01-1.707 1.711 3.16 3.16 0 01-1.21.242H42.444c-.422 0-.824-.082-1.21-.242a3.117 3.117 0 01-1.024-.683 3.144 3.144 0 01-.926-2.235 3.128 3.128 0 01.926-2.234 3.128 3.128 0 012.234-.926zm0 0M42.445 51.926H67.73a3.16 3.16 0 012.918 1.953c.165.387.243.789.243 1.207 0 .422-.079.824-.243 1.21a3.133 3.133 0 01-1.707 1.712 3.16 3.16 0 01-1.21.242H42.444a3.179 3.179 0 01-2.922-1.953 3.128 3.128 0 01-.238-1.211 3.144 3.144 0 01.926-2.234 3.117 3.117 0 011.023-.684c.387-.16.79-.242 1.211-.242zm0 0M42.445 67.73H67.73c.418 0 .82.079 1.211.243.387.16.727.386 1.024.683.297.297.523.637.683 1.024.165.39.243.793.243 1.21 0 .419-.079.825-.243 1.212-.16.386-.386.726-.683 1.023a3.128 3.128 0 01-2.235.926H42.445a3.128 3.128 0 01-2.234-.926 3.128 3.128 0 01-.926-2.234 3.128 3.128 0 01.926-2.234 3.117 3.117 0 011.023-.684c.387-.164.79-.243 1.211-.243zm0 0M42.445 83.535H67.73a3.128 3.128 0 012.234.926c.298.297.524.637.684 1.023.165.387.243.79.243 1.211 0 .418-.079.82-.243 1.207-.16.391-.386.73-.683 1.028a3.16 3.16 0 01-2.234.926H42.444c-.422 0-.824-.083-1.21-.243a3.117 3.117 0 01-1.024-.683 3.104 3.104 0 01-.688-1.028 3.123 3.123 0 01-.238-1.207 3.128 3.128 0 01.926-2.234 3.128 3.128 0 012.234-.926zm0 0M42.445 99.336H67.73a3.16 3.16 0 012.918 1.953c.165.387.243.79.243 1.211 0 .418-.079.82-.243 1.207a3.133 3.133 0 01-1.707 1.711 3.16 3.16 0 01-1.21.242H42.444c-.422 0-.824-.082-1.21-.242a3.117 3.117 0 01-1.024-.684 3.144 3.144 0 01-.926-2.234 3.128 3.128 0 01.926-2.238 3.117 3.117 0 011.023-.684c.387-.16.79-.242 1.211-.242zm0 0"/></svg>